<mxfile host="65bd71144e">
    <diagram id="C5RBs43oDa-KdzZeNtuy" name="two_models">
        <mxGraphModel dx="1202" dy="1762" grid="1" gridSize="10" guides="1" tooltips="1" connect="1" arrows="1" fold="1" page="1" pageScale="1" pageWidth="827" pageHeight="1169" math="0" shadow="0">
            <root>
                <mxCell id="WIyWlLk6GJQsqaUBKTNV-0"/>
                <mxCell id="WIyWlLk6GJQsqaUBKTNV-1" parent="WIyWlLk6GJQsqaUBKTNV-0"/>
                <mxCell id="hW5n2ouBTmK9XzmkuQqM-54" value="" style="endArrow=none;dashed=1;html=1;rounded=0;" parent="WIyWlLk6GJQsqaUBKTNV-1" edge="1">
                    <mxGeometry width="50" height="50" relative="1" as="geometry">
                        <mxPoint x="440" y="-10" as="sourcePoint"/>
                        <mxPoint x="440" y="-360" as="targetPoint"/>
                    </mxGeometry>
                </mxCell>
                <mxCell id="hW5n2ouBTmK9XzmkuQqM-55" value="" style="endArrow=none;dashed=1;html=1;rounded=0;" parent="WIyWlLk6GJQsqaUBKTNV-1" edge="1">
                    <mxGeometry width="50" height="50" relative="1" as="geometry">
                        <mxPoint x="160" y="-280" as="sourcePoint"/>
                        <mxPoint x="720" y="-280" as="targetPoint"/>
                    </mxGeometry>
                </mxCell>
                <mxCell id="hW5n2ouBTmK9XzmkuQqM-56" value="Gas system" style="text;html=1;strokeColor=none;fillColor=none;align=center;verticalAlign=middle;whiteSpace=wrap;rounded=0;" parent="WIyWlLk6GJQsqaUBKTNV-1" vertex="1">
                    <mxGeometry x="250" y="-340" width="110" height="40" as="geometry"/>
                </mxCell>
                <mxCell id="hW5n2ouBTmK9XzmkuQqM-57" value="Electric system" style="text;html=1;strokeColor=none;fillColor=none;align=center;verticalAlign=middle;whiteSpace=wrap;rounded=0;" parent="WIyWlLk6GJQsqaUBKTNV-1" vertex="1">
                    <mxGeometry x="515" y="-340" width="110" height="40" as="geometry"/>
                </mxCell>
                <mxCell id="hW5n2ouBTmK9XzmkuQqM-58" value="G" style="ellipse;whiteSpace=wrap;html=1;aspect=fixed;" parent="WIyWlLk6GJQsqaUBKTNV-1" vertex="1">
                    <mxGeometry x="265" y="-210" width="80" height="80" as="geometry"/>
                </mxCell>
                <mxCell id="hW5n2ouBTmK9XzmkuQqM-59" value="E" style="ellipse;whiteSpace=wrap;html=1;aspect=fixed;" parent="WIyWlLk6GJQsqaUBKTNV-1" vertex="1">
                    <mxGeometry x="530" y="-210" width="80" height="80" as="geometry"/>
                </mxCell>
                <mxCell id="hW5n2ouBTmK9XzmkuQqM-60" value="" style="endArrow=classic;html=1;rounded=0;entryX=0;entryY=1;entryDx=0;entryDy=0;exitX=1;exitY=0.5;exitDx=0;exitDy=0;" parent="WIyWlLk6GJQsqaUBKTNV-1" source="hW5n2ouBTmK9XzmkuQqM-64" target="hW5n2ouBTmK9XzmkuQqM-58" edge="1">
                    <mxGeometry width="50" height="50" relative="1" as="geometry">
                        <mxPoint x="230" y="-90" as="sourcePoint"/>
                        <mxPoint x="440" y="-90" as="targetPoint"/>
                    </mxGeometry>
                </mxCell>
                <mxCell id="hW5n2ouBTmK9XzmkuQqM-61" value="" style="endArrow=classic;html=1;rounded=0;exitX=0;exitY=0;exitDx=0;exitDy=0;entryX=1;entryY=0.5;entryDx=0;entryDy=0;" parent="WIyWlLk6GJQsqaUBKTNV-1" source="hW5n2ouBTmK9XzmkuQqM-58" target="hW5n2ouBTmK9XzmkuQqM-67" edge="1">
                    <mxGeometry width="50" height="50" relative="1" as="geometry">
                        <mxPoint x="240" y="-80" as="sourcePoint"/>
                        <mxPoint x="210" y="-230" as="targetPoint"/>
                    </mxGeometry>
                </mxCell>
                <mxCell id="hW5n2ouBTmK9XzmkuQqM-62" value="" style="endArrow=classic;html=1;rounded=0;exitX=1;exitY=0;exitDx=0;exitDy=0;entryX=0;entryY=0.5;entryDx=0;entryDy=0;" parent="WIyWlLk6GJQsqaUBKTNV-1" source="hW5n2ouBTmK9XzmkuQqM-59" target="hW5n2ouBTmK9XzmkuQqM-66" edge="1">
                    <mxGeometry width="50" height="50" relative="1" as="geometry">
                        <mxPoint x="707" y="-228" as="sourcePoint"/>
                        <mxPoint x="650" y="-240" as="targetPoint"/>
                    </mxGeometry>
                </mxCell>
                <mxCell id="hW5n2ouBTmK9XzmkuQqM-63" value="" style="endArrow=classic;html=1;rounded=0;entryX=1;entryY=1;entryDx=0;entryDy=0;exitX=0;exitY=0.5;exitDx=0;exitDy=0;" parent="WIyWlLk6GJQsqaUBKTNV-1" source="hW5n2ouBTmK9XzmkuQqM-65" target="hW5n2ouBTmK9XzmkuQqM-59" edge="1">
                    <mxGeometry width="50" height="50" relative="1" as="geometry">
                        <mxPoint x="650" y="-90" as="sourcePoint"/>
                        <mxPoint x="600" y="-110" as="targetPoint"/>
                    </mxGeometry>
                </mxCell>
                <mxCell id="hW5n2ouBTmK9XzmkuQqM-64" value="Gas production" style="rounded=1;whiteSpace=wrap;html=1;" parent="WIyWlLk6GJQsqaUBKTNV-1" vertex="1">
                    <mxGeometry x="140" y="-110" width="90" height="30" as="geometry"/>
                </mxCell>
                <mxCell id="hW5n2ouBTmK9XzmkuQqM-65" value="Elec production" style="rounded=1;whiteSpace=wrap;html=1;" parent="WIyWlLk6GJQsqaUBKTNV-1" vertex="1">
                    <mxGeometry x="660" y="-110" width="90" height="30" as="geometry"/>
                </mxCell>
                <mxCell id="hW5n2ouBTmK9XzmkuQqM-66" value="Elec demand" style="rounded=1;whiteSpace=wrap;html=1;" parent="WIyWlLk6GJQsqaUBKTNV-1" vertex="1">
                    <mxGeometry x="660" y="-260" width="90" height="30" as="geometry"/>
                </mxCell>
                <mxCell id="hW5n2ouBTmK9XzmkuQqM-67" value="Gas demand" style="rounded=1;whiteSpace=wrap;html=1;" parent="WIyWlLk6GJQsqaUBKTNV-1" vertex="1">
                    <mxGeometry x="140" y="-250" width="90" height="30" as="geometry"/>
                </mxCell>
                <mxCell id="hW5n2ouBTmK9XzmkuQqM-78" value="" style="endArrow=none;dashed=1;html=1;rounded=0;" parent="WIyWlLk6GJQsqaUBKTNV-1" edge="1">
                    <mxGeometry width="50" height="50" relative="1" as="geometry">
                        <mxPoint x="10" as="sourcePoint"/>
                        <mxPoint x="800" as="targetPoint"/>
                    </mxGeometry>
                </mxCell>
                <mxCell id="hW5n2ouBTmK9XzmkuQqM-81" value="&lt;h1&gt;Physical system&lt;br&gt;&lt;/h1&gt;" style="text;html=1;strokeColor=none;fillColor=none;spacing=5;spacingTop=-20;whiteSpace=wrap;overflow=hidden;rounded=0;" parent="WIyWlLk6GJQsqaUBKTNV-1" vertex="1">
                    <mxGeometry x="310" y="-580" width="250" height="40" as="geometry"/>
                </mxCell>
                <mxCell id="0" value="" style="group" parent="WIyWlLk6GJQsqaUBKTNV-1" vertex="1" connectable="0">
                    <mxGeometry x="890" y="-440" width="690" height="460" as="geometry"/>
                </mxCell>
                <mxCell id="hW5n2ouBTmK9XzmkuQqM-79" value="&lt;h1&gt;Ports and models&lt;br&gt;&lt;/h1&gt;" style="text;html=1;strokeColor=none;fillColor=none;spacing=5;spacingTop=-20;whiteSpace=wrap;overflow=hidden;rounded=0;" parent="0" vertex="1">
                    <mxGeometry x="230" width="250" height="40" as="geometry"/>
                </mxCell>
                <mxCell id="94" value="StockFinalLevel : Model" style="swimlane;fontStyle=0;childLayout=stackLayout;horizontal=1;startSize=30;horizontalStack=0;resizeParent=1;resizeParentMax=0;resizeLast=0;collapsible=1;marginBottom=0;whiteSpace=wrap;html=1;fillColor=#CCFFCC;fontColor=#000000;" parent="0" vertex="1">
                    <mxGeometry x="10" y="40" width="270" height="390" as="geometry"/>
                </mxCell>
                <mxCell id="95" value="r, u_in, u_out : Variable" style="text;strokeColor=none;fillColor=none;align=left;verticalAlign=middle;spacingLeft=4;spacingRight=4;overflow=hidden;points=[[0,0.5],[1,0.5]];portConstraint=eastwest;rotatable=0;whiteSpace=wrap;html=1;" parent="94" vertex="1">
                    <mxGeometry y="30" width="270" height="30" as="geometry"/>
                </mxCell>
                <mxCell id="137" value="p_max_in, p_max_out : Parameter" style="text;strokeColor=none;fillColor=none;align=left;verticalAlign=middle;spacingLeft=4;spacingRight=4;overflow=hidden;points=[[0,0.5],[1,0.5]];portConstraint=eastwest;rotatable=0;whiteSpace=wrap;html=1;" parent="94" vertex="1">
                    <mxGeometry y="60" width="270" height="30" as="geometry"/>
                </mxCell>
                <mxCell id="138" value="capacity, initial_level, final_level : Parameter" style="text;strokeColor=none;fillColor=none;align=left;verticalAlign=middle;spacingLeft=4;spacingRight=4;overflow=hidden;points=[[0,0.5],[1,0.5]];portConstraint=eastwest;rotatable=0;whiteSpace=wrap;html=1;" parent="94" vertex="1">
                    <mxGeometry y="90" width="270" height="30" as="geometry"/>
                </mxCell>
                <mxCell id="139" value="0 &amp;lt;= u_in &amp;lt;= p_max_in" style="text;strokeColor=none;fillColor=none;align=left;verticalAlign=middle;spacingLeft=4;spacingRight=4;overflow=hidden;points=[[0,0.5],[1,0.5]];portConstraint=eastwest;rotatable=0;whiteSpace=wrap;html=1;" parent="94" vertex="1">
                    <mxGeometry y="120" width="270" height="30" as="geometry"/>
                </mxCell>
                <mxCell id="140" value="0 &amp;lt;= u_out &amp;lt;= p_max_out" style="text;strokeColor=none;fillColor=none;align=left;verticalAlign=middle;spacingLeft=4;spacingRight=4;overflow=hidden;points=[[0,0.5],[1,0.5]];portConstraint=eastwest;rotatable=0;whiteSpace=wrap;html=1;" parent="94" vertex="1">
                    <mxGeometry y="150" width="270" height="30" as="geometry"/>
                </mxCell>
                <mxCell id="141" value="r_0= initial_level" style="text;strokeColor=none;fillColor=none;align=left;verticalAlign=middle;spacingLeft=4;spacingRight=4;overflow=hidden;points=[[0,0.5],[1,0.5]];portConstraint=eastwest;rotatable=0;whiteSpace=wrap;html=1;" parent="94" vertex="1">
                    <mxGeometry y="180" width="270" height="30" as="geometry"/>
                </mxCell>
                <mxCell id="142" value="r_H = final_level" style="text;strokeColor=none;fillColor=none;align=left;verticalAlign=middle;spacingLeft=4;spacingRight=4;overflow=hidden;points=[[0,0.5],[1,0.5]];portConstraint=eastwest;rotatable=0;whiteSpace=wrap;html=1;" parent="94" vertex="1">
                    <mxGeometry y="210" width="270" height="30" as="geometry"/>
                </mxCell>
                <mxCell id="143" value="0&amp;lt;=r &amp;lt;=capacity" style="text;strokeColor=none;fillColor=none;align=left;verticalAlign=middle;spacingLeft=4;spacingRight=4;overflow=hidden;points=[[0,0.5],[1,0.5]];portConstraint=eastwest;rotatable=0;whiteSpace=wrap;html=1;" parent="94" vertex="1">
                    <mxGeometry y="240" width="270" height="30" as="geometry"/>
                </mxCell>
                <mxCell id="144" value="r(h+1) = r(h) + u_in(h) - u_out(h)" style="text;strokeColor=none;fillColor=none;align=left;verticalAlign=middle;spacingLeft=4;spacingRight=4;overflow=hidden;points=[[0,0.5],[1,0.5]];portConstraint=eastwest;rotatable=0;whiteSpace=wrap;html=1;" parent="94" vertex="1">
                    <mxGeometry y="270" width="270" height="30" as="geometry"/>
                </mxCell>
                <mxCell id="96" value="flow_s, flow_c : Flow" style="text;strokeColor=none;fillColor=none;align=left;verticalAlign=middle;spacingLeft=4;spacingRight=4;overflow=hidden;points=[[0,0.5],[1,0.5]];portConstraint=eastwest;rotatable=0;whiteSpace=wrap;html=1;" parent="94" vertex="1">
                    <mxGeometry y="300" width="270" height="30" as="geometry"/>
                </mxCell>
                <mxCell id="97" value="flow_s.f = u_out - u_in" style="text;strokeColor=none;fillColor=none;align=left;verticalAlign=middle;spacingLeft=4;spacingRight=4;overflow=hidden;points=[[0,0.5],[1,0.5]];portConstraint=eastwest;rotatable=0;whiteSpace=wrap;html=1;" parent="94" vertex="1">
                    <mxGeometry y="330" width="270" height="30" as="geometry"/>
                </mxCell>
                <mxCell id="151" value="flow_in.f .sum() = u_in" style="text;strokeColor=none;fillColor=none;align=left;verticalAlign=middle;spacingLeft=4;spacingRight=4;overflow=hidden;points=[[0,0.5],[1,0.5]];portConstraint=eastwest;rotatable=0;whiteSpace=wrap;html=1;" parent="94" vertex="1">
                    <mxGeometry y="360" width="270" height="30" as="geometry"/>
                </mxCell>
                <mxCell id="1" value="" style="group" parent="WIyWlLk6GJQsqaUBKTNV-1" vertex="1" connectable="0">
                    <mxGeometry x="109" y="40" width="680" height="320" as="geometry"/>
                </mxCell>
                <mxCell id="hW5n2ouBTmK9XzmkuQqM-36" value="File &quot;network.txt&quot;" style="swimlane;fontStyle=0;childLayout=stackLayout;horizontal=1;startSize=30;horizontalStack=0;resizeParent=1;resizeParentMax=0;resizeLast=0;collapsible=1;marginBottom=0;whiteSpace=wrap;html=1;fillColor=#CCCCFF;" parent="1" vertex="1">
                    <mxGeometry x="220" y="60" width="310" height="480" as="geometry"/>
                </mxCell>
                <mxCell id="hW5n2ouBTmK9XzmkuQqM-39" value="g, e : Node" style="text;strokeColor=none;fillColor=none;align=left;verticalAlign=middle;spacingLeft=4;spacingRight=4;overflow=hidden;points=[[0,0.5],[1,0.5]];portConstraint=eastwest;rotatable=0;whiteSpace=wrap;html=1;" parent="hW5n2ouBTmK9XzmkuQqM-36" vertex="1">
                    <mxGeometry y="30" width="310" height="30" as="geometry"/>
                </mxCell>
                <mxCell id="hW5n2ouBTmK9XzmkuQqM-44" value="demand_e, demand_g : Demand" style="text;strokeColor=none;fillColor=none;align=left;verticalAlign=middle;spacingLeft=4;spacingRight=4;overflow=hidden;points=[[0,0.5],[1,0.5]];portConstraint=eastwest;rotatable=0;whiteSpace=wrap;html=1;" parent="hW5n2ouBTmK9XzmkuQqM-36" vertex="1">
                    <mxGeometry y="60" width="310" height="30" as="geometry"/>
                </mxCell>
                <mxCell id="hW5n2ouBTmK9XzmkuQqM-41" value="prod_e, prod_g : Production" style="text;strokeColor=none;fillColor=none;align=left;verticalAlign=middle;spacingLeft=4;spacingRight=4;overflow=hidden;points=[[0,0.5],[1,0.5]];portConstraint=eastwest;rotatable=0;whiteSpace=wrap;html=1;" parent="hW5n2ouBTmK9XzmkuQqM-36" vertex="1">
                    <mxGeometry y="90" width="310" height="30" as="geometry"/>
                </mxCell>
                <mxCell id="hW5n2ouBTmK9XzmkuQqM-37" value="electrolyser : Converter" style="text;strokeColor=none;fillColor=none;align=left;verticalAlign=middle;spacingLeft=4;spacingRight=4;overflow=hidden;points=[[0,0.5],[1,0.5]];portConstraint=eastwest;rotatable=0;whiteSpace=wrap;html=1;" parent="hW5n2ouBTmK9XzmkuQqM-36" vertex="1">
                    <mxGeometry y="120" width="310" height="30" as="geometry"/>
                </mxCell>
                <mxCell id="167" value="compressor : Converter" style="text;strokeColor=none;fillColor=none;align=left;verticalAlign=middle;spacingLeft=4;spacingRight=4;overflow=hidden;points=[[0,0.5],[1,0.5]];portConstraint=eastwest;rotatable=0;whiteSpace=wrap;html=1;" parent="hW5n2ouBTmK9XzmkuQqM-36" vertex="1">
                    <mxGeometry y="150" width="310" height="30" as="geometry"/>
                </mxCell>
                <mxCell id="168" value="gas_stock : StockFinalLevel" style="text;strokeColor=none;fillColor=none;align=left;verticalAlign=middle;spacingLeft=4;spacingRight=4;overflow=hidden;points=[[0,0.5],[1,0.5]];portConstraint=eastwest;rotatable=0;whiteSpace=wrap;html=1;" parent="hW5n2ouBTmK9XzmkuQqM-36" vertex="1">
                    <mxGeometry y="180" width="310" height="30" as="geometry"/>
                </mxCell>
                <mxCell id="hW5n2ouBTmK9XzmkuQqM-47" value="e.flow_n prod_e.flow_p" style="text;strokeColor=none;fillColor=none;align=left;verticalAlign=middle;spacingLeft=4;spacingRight=4;overflow=hidden;points=[[0,0.5],[1,0.5]];portConstraint=eastwest;rotatable=0;whiteSpace=wrap;html=1;" parent="hW5n2ouBTmK9XzmkuQqM-36" vertex="1">
                    <mxGeometry y="210" width="310" height="30" as="geometry"/>
                </mxCell>
                <mxCell id="hW5n2ouBTmK9XzmkuQqM-48" value="e.flow_n demand_e.flow_d" style="text;strokeColor=none;fillColor=none;align=left;verticalAlign=middle;spacingLeft=4;spacingRight=4;overflow=hidden;points=[[0,0.5],[1,0.5]];portConstraint=eastwest;rotatable=0;whiteSpace=wrap;html=1;" parent="hW5n2ouBTmK9XzmkuQqM-36" vertex="1">
                    <mxGeometry y="240" width="310" height="30" as="geometry"/>
                </mxCell>
                <mxCell id="hW5n2ouBTmK9XzmkuQqM-49" value="g.flow_n prod_g.flow_p" style="text;strokeColor=none;fillColor=none;align=left;verticalAlign=middle;spacingLeft=4;spacingRight=4;overflow=hidden;points=[[0,0.5],[1,0.5]];portConstraint=eastwest;rotatable=0;whiteSpace=wrap;html=1;" parent="hW5n2ouBTmK9XzmkuQqM-36" vertex="1">
                    <mxGeometry y="270" width="310" height="30" as="geometry"/>
                </mxCell>
                <mxCell id="hW5n2ouBTmK9XzmkuQqM-50" value="g.flow_n demand_g.flow_d" style="text;strokeColor=none;fillColor=none;align=left;verticalAlign=middle;spacingLeft=4;spacingRight=4;overflow=hidden;points=[[0,0.5],[1,0.5]];portConstraint=eastwest;rotatable=0;whiteSpace=wrap;html=1;" parent="hW5n2ouBTmK9XzmkuQqM-36" vertex="1">
                    <mxGeometry y="300" width="310" height="30" as="geometry"/>
                </mxCell>
                <mxCell id="hW5n2ouBTmK9XzmkuQqM-51" value="e.flow_n electrolyser.flow_in" style="text;strokeColor=none;fillColor=none;align=left;verticalAlign=middle;spacingLeft=4;spacingRight=4;overflow=hidden;points=[[0,0.5],[1,0.5]];portConstraint=eastwest;rotatable=0;whiteSpace=wrap;html=1;" parent="hW5n2ouBTmK9XzmkuQqM-36" vertex="1">
                    <mxGeometry y="330" width="310" height="30" as="geometry"/>
                </mxCell>
                <mxCell id="hW5n2ouBTmK9XzmkuQqM-46" value="g.flow_n electrolyser.flow_out" style="text;strokeColor=none;fillColor=none;align=left;verticalAlign=middle;spacingLeft=4;spacingRight=4;overflow=hidden;points=[[0,0.5],[1,0.5]];portConstraint=eastwest;rotatable=0;whiteSpace=wrap;html=1;" parent="hW5n2ouBTmK9XzmkuQqM-36" vertex="1">
                    <mxGeometry y="360" width="310" height="30" as="geometry"/>
                </mxCell>
                <mxCell id="hW5n2ouBTmK9XzmkuQqM-53" value="g.flow_n gas_stock.flow_s" style="text;strokeColor=none;fillColor=none;align=left;verticalAlign=middle;spacingLeft=4;spacingRight=4;overflow=hidden;points=[[0,0.5],[1,0.5]];portConstraint=eastwest;rotatable=0;whiteSpace=wrap;html=1;" parent="hW5n2ouBTmK9XzmkuQqM-36" vertex="1">
                    <mxGeometry y="390" width="310" height="30" as="geometry"/>
                </mxCell>
                <mxCell id="169" value="e.flow_n compressor.flow_out" style="text;strokeColor=none;fillColor=none;align=left;verticalAlign=middle;spacingLeft=4;spacingRight=4;overflow=hidden;points=[[0,0.5],[1,0.5]];portConstraint=eastwest;rotatable=0;whiteSpace=wrap;html=1;" parent="hW5n2ouBTmK9XzmkuQqM-36" vertex="1">
                    <mxGeometry y="420" width="310" height="30" as="geometry"/>
                </mxCell>
                <mxCell id="170" value="gas_stock.flow_in compressor.flow_in" style="text;strokeColor=none;fillColor=none;align=left;verticalAlign=middle;spacingLeft=4;spacingRight=4;overflow=hidden;points=[[0,0.5],[1,0.5]];portConstraint=eastwest;rotatable=0;whiteSpace=wrap;html=1;" parent="hW5n2ouBTmK9XzmkuQqM-36" vertex="1">
                    <mxGeometry y="450" width="310" height="30" as="geometry"/>
                </mxCell>
                <mxCell id="hW5n2ouBTmK9XzmkuQqM-80" value="&lt;h1&gt;Study data&lt;br&gt;&lt;/h1&gt;" style="text;html=1;strokeColor=none;fillColor=none;spacing=5;spacingTop=-20;whiteSpace=wrap;overflow=hidden;rounded=0;align=center;" parent="1" vertex="1">
                    <mxGeometry x="250" width="250" height="40" as="geometry"/>
                </mxCell>
                <mxCell id="11" value="&lt;font style=&quot;&quot;&gt;&lt;b style=&quot;&quot;&gt;&lt;font style=&quot;font-size: 24px;&quot;&gt;Data visualization&lt;/font&gt;&lt;br&gt;&lt;/b&gt;&lt;/font&gt;" style="text;html=1;strokeColor=none;fillColor=none;align=center;verticalAlign=middle;whiteSpace=wrap;rounded=0;" parent="WIyWlLk6GJQsqaUBKTNV-1" vertex="1">
                    <mxGeometry x="1030" width="430" height="120" as="geometry"/>
                </mxCell>
                <mxCell id="49" value="" style="group" parent="WIyWlLk6GJQsqaUBKTNV-1" vertex="1" connectable="0">
                    <mxGeometry x="880" y="170" width="790" height="260.5" as="geometry"/>
                </mxCell>
                <mxCell id="2" value="" style="group" parent="49" vertex="1" connectable="0">
                    <mxGeometry x="120" y="30" width="80" height="110" as="geometry"/>
                </mxCell>
                <mxCell id="3" value="g" style="ellipse;whiteSpace=wrap;html=1;aspect=fixed;fillColor=#e1d5e7;strokeColor=#9673a6;" parent="2" vertex="1">
                    <mxGeometry width="80" height="80" as="geometry"/>
                </mxCell>
                <mxCell id="4" value="flow_n" style="rounded=0;whiteSpace=wrap;html=1;fillColor=#e1d5e7;strokeColor=#9673a6;" parent="2" vertex="1">
                    <mxGeometry x="15" y="80" width="50" height="30" as="geometry"/>
                </mxCell>
                <mxCell id="8" value="" style="group" parent="49" vertex="1" connectable="0">
                    <mxGeometry x="590" y="30" width="80" height="110" as="geometry"/>
                </mxCell>
                <mxCell id="9" value="e" style="ellipse;whiteSpace=wrap;html=1;aspect=fixed;fillColor=#dae8fc;strokeColor=#6c8ebf;" parent="8" vertex="1">
                    <mxGeometry width="80" height="80" as="geometry"/>
                </mxCell>
                <mxCell id="10" value="flow_n" style="rounded=0;whiteSpace=wrap;html=1;fillColor=#dae8fc;strokeColor=#6c8ebf;" parent="8" vertex="1">
                    <mxGeometry x="15" y="80" width="50" height="30" as="geometry"/>
                </mxCell>
                <mxCell id="17" value="" style="group" parent="49" vertex="1" connectable="0">
                    <mxGeometry x="330" y="150" width="120" height="110.5" as="geometry"/>
                </mxCell>
                <mxCell id="18" value="electrolyser" style="ellipse;whiteSpace=wrap;html=1;" parent="17" vertex="1">
                    <mxGeometry y="30.5" width="120" height="80" as="geometry"/>
                </mxCell>
                <mxCell id="19" value="" style="group;fillColor=#f8cecc;strokeColor=#b85450;" parent="17" vertex="1" connectable="0">
                    <mxGeometry x="10" width="100" height="30" as="geometry"/>
                </mxCell>
                <mxCell id="20" value="flow_out" style="rounded=0;whiteSpace=wrap;html=1;fillColor=#e1d5e7;strokeColor=#9673a6;" parent="19" vertex="1">
                    <mxGeometry width="50" height="30" as="geometry"/>
                </mxCell>
                <mxCell id="21" value="flow_in" style="rounded=0;whiteSpace=wrap;html=1;fillColor=#dae8fc;strokeColor=#6c8ebf;" parent="19" vertex="1">
                    <mxGeometry x="50" width="50" height="30" as="geometry"/>
                </mxCell>
                <mxCell id="22" value="" style="group" parent="49" vertex="1" connectable="0">
                    <mxGeometry x="330" width="120" height="110.5" as="geometry"/>
                </mxCell>
                <UserObject label="compressor" link="data:page/id,C5RBs43oDa-KdzZeNtuy" id="13">
                    <mxCell style="ellipse;whiteSpace=wrap;html=1;container=0;" parent="22" vertex="1">
                        <mxGeometry width="120" height="80" as="geometry"/>
                    </mxCell>
                </UserObject>
                <mxCell id="14" value="" style="group;fillColor=#f8cecc;strokeColor=#b85450;container=0;" parent="22" vertex="1" connectable="0">
                    <mxGeometry x="10" y="80.5" width="100" height="30" as="geometry"/>
                </mxCell>
                <mxCell id="15" value="flow_in" style="rounded=0;whiteSpace=wrap;html=1;fillColor=#e1d5e7;strokeColor=#9673a6;container=0;" parent="22" vertex="1">
                    <mxGeometry x="10" y="80.5" width="50" height="30" as="geometry"/>
                </mxCell>
                <mxCell id="16" value="flow_out" style="rounded=0;whiteSpace=wrap;html=1;fillColor=#dae8fc;strokeColor=#6c8ebf;container=0;" parent="22" vertex="1">
                    <mxGeometry x="60" y="80.5" width="50" height="30" as="geometry"/>
                </mxCell>
                <mxCell id="33" value="" style="group" parent="49" vertex="1" connectable="0">
                    <mxGeometry x="710" y="110" width="80" height="60" as="geometry"/>
                </mxCell>
                <mxCell id="30" value="prod_e" style="rounded=1;whiteSpace=wrap;html=1;container=0;" parent="33" vertex="1">
                    <mxGeometry y="30" width="80" height="30" as="geometry"/>
                </mxCell>
                <mxCell id="31" value="flow_p" style="rounded=0;whiteSpace=wrap;html=1;fillColor=#dae8fc;strokeColor=#6c8ebf;container=0;" parent="33" vertex="1">
                    <mxGeometry x="15" width="50" height="30" as="geometry"/>
                </mxCell>
                <mxCell id="34" value="" style="group" parent="49" vertex="1" connectable="0">
                    <mxGeometry x="590" y="190" width="80" height="60" as="geometry"/>
                </mxCell>
                <mxCell id="35" value="demand_e" style="rounded=1;whiteSpace=wrap;html=1;container=0;" parent="34" vertex="1">
                    <mxGeometry y="30" width="80" height="30" as="geometry"/>
                </mxCell>
                <mxCell id="36" value="flow_d" style="rounded=0;whiteSpace=wrap;html=1;fillColor=#dae8fc;strokeColor=#6c8ebf;container=0;" parent="34" vertex="1">
                    <mxGeometry x="15" width="50" height="30" as="geometry"/>
                </mxCell>
                <mxCell id="37" value="" style="group" parent="49" vertex="1" connectable="0">
                    <mxGeometry x="120" y="190" width="80" height="60" as="geometry"/>
                </mxCell>
                <mxCell id="38" value="demand_g" style="rounded=1;whiteSpace=wrap;html=1;container=0;" parent="37" vertex="1">
                    <mxGeometry y="30" width="80" height="30" as="geometry"/>
                </mxCell>
                <mxCell id="39" value="flow_d" style="rounded=0;whiteSpace=wrap;html=1;fillColor=#e1d5e7;strokeColor=#9673a6;container=0;" parent="37" vertex="1">
                    <mxGeometry x="15" width="50" height="30" as="geometry"/>
                </mxCell>
                <mxCell id="40" value="" style="group" parent="49" vertex="1" connectable="0">
                    <mxGeometry y="110" width="80" height="60" as="geometry"/>
                </mxCell>
                <mxCell id="41" value="prod_g" style="rounded=1;whiteSpace=wrap;html=1;container=0;" parent="40" vertex="1">
                    <mxGeometry y="30" width="80" height="30" as="geometry"/>
                </mxCell>
                <mxCell id="42" value="flow_p" style="rounded=0;whiteSpace=wrap;html=1;fillColor=#e1d5e7;strokeColor=#9673a6;container=0;" parent="40" vertex="1">
                    <mxGeometry x="15" width="50" height="30" as="geometry"/>
                </mxCell>
                <mxCell id="119" style="edgeStyle=none;html=1;entryX=0;entryY=0.5;entryDx=0;entryDy=0;" parent="49" source="42" target="4" edge="1">
                    <mxGeometry relative="1" as="geometry"/>
                </mxCell>
                <mxCell id="120" style="edgeStyle=none;html=1;entryX=0.5;entryY=1;entryDx=0;entryDy=0;" parent="49" source="39" target="4" edge="1">
                    <mxGeometry relative="1" as="geometry"/>
                </mxCell>
                <mxCell id="122" style="edgeStyle=none;html=1;entryX=1;entryY=0.5;entryDx=0;entryDy=0;" parent="49" source="20" target="4" edge="1">
                    <mxGeometry relative="1" as="geometry"/>
                </mxCell>
                <mxCell id="123" style="edgeStyle=none;html=1;entryX=0;entryY=0.5;entryDx=0;entryDy=0;" parent="49" source="21" target="10" edge="1">
                    <mxGeometry relative="1" as="geometry"/>
                </mxCell>
                <mxCell id="124" style="edgeStyle=none;html=1;entryX=0;entryY=0.5;entryDx=0;entryDy=0;" parent="49" source="16" target="10" edge="1">
                    <mxGeometry relative="1" as="geometry"/>
                </mxCell>
                <mxCell id="127" style="edgeStyle=none;html=1;entryX=1;entryY=0.5;entryDx=0;entryDy=0;" parent="49" source="31" target="10" edge="1">
                    <mxGeometry relative="1" as="geometry"/>
                </mxCell>
                <mxCell id="128" style="edgeStyle=none;html=1;" parent="49" source="36" target="10" edge="1">
                    <mxGeometry relative="1" as="geometry"/>
                </mxCell>
                <mxCell id="129" value="&lt;i&gt;We represent a gas stock. To inject gas into the stock, electricity is needed for the compressor.&amp;nbsp;&lt;/i&gt;" style="text;html=1;strokeColor=#FFCCCC;fillColor=none;align=left;verticalAlign=middle;whiteSpace=wrap;rounded=0;dashed=1;strokeWidth=2;" parent="WIyWlLk6GJQsqaUBKTNV-1" vertex="1">
                    <mxGeometry x="156" y="-630" width="515" height="40" as="geometry"/>
                </mxCell>
                <mxCell id="130" value="" style="endArrow=classic;html=1;rounded=0;exitX=0;exitY=0.5;exitDx=0;exitDy=0;entryX=1;entryY=0.5;entryDx=0;entryDy=0;" parent="WIyWlLk6GJQsqaUBKTNV-1" source="hW5n2ouBTmK9XzmkuQqM-59" target="hW5n2ouBTmK9XzmkuQqM-58" edge="1">
                    <mxGeometry relative="1" as="geometry">
                        <mxPoint x="541.7157287525381" y="-141.7157287525381" as="sourcePoint"/>
                        <mxPoint x="333.2842712474619" y="-141.7157287525381" as="targetPoint"/>
                    </mxGeometry>
                </mxCell>
                <mxCell id="131" value="Label" style="edgeLabel;resizable=0;html=1;align=center;verticalAlign=middle;" parent="130" connectable="0" vertex="1">
                    <mxGeometry relative="1" as="geometry"/>
                </mxCell>
                <mxCell id="132" value="&lt;font style=&quot;font-size: 12px;&quot;&gt;Electrolyser&lt;/font&gt;" style="edgeLabel;html=1;align=center;verticalAlign=middle;resizable=0;points=[];" parent="130" vertex="1" connectable="0">
                    <mxGeometry x="-0.024" y="-2" relative="1" as="geometry">
                        <mxPoint as="offset"/>
                    </mxGeometry>
                </mxCell>
                <mxCell id="133" value="Compressor consumption&amp;nbsp;" style="rounded=1;whiteSpace=wrap;html=1;" parent="WIyWlLk6GJQsqaUBKTNV-1" vertex="1">
                    <mxGeometry x="660" y="-185" width="90" height="30" as="geometry"/>
                </mxCell>
                <mxCell id="134" value="" style="endArrow=classic;html=1;rounded=0;exitX=1;exitY=0.5;exitDx=0;exitDy=0;entryX=0;entryY=0.5;entryDx=0;entryDy=0;" parent="WIyWlLk6GJQsqaUBKTNV-1" source="hW5n2ouBTmK9XzmkuQqM-59" target="133" edge="1">
                    <mxGeometry width="50" height="50" relative="1" as="geometry">
                        <mxPoint x="608.2842712474621" y="-188.28427124746213" as="sourcePoint"/>
                        <mxPoint x="670" y="-235" as="targetPoint"/>
                    </mxGeometry>
                </mxCell>
                <mxCell id="135" value="Gas stock" style="rounded=1;whiteSpace=wrap;html=1;" parent="WIyWlLk6GJQsqaUBKTNV-1" vertex="1">
                    <mxGeometry x="140" y="-185" width="90" height="30" as="geometry"/>
                </mxCell>
                <mxCell id="136" value="" style="endArrow=classic;html=1;rounded=0;entryX=0;entryY=0.5;entryDx=0;entryDy=0;exitX=1;exitY=0.5;exitDx=0;exitDy=0;startArrow=classic;startFill=1;" parent="WIyWlLk6GJQsqaUBKTNV-1" source="135" target="hW5n2ouBTmK9XzmkuQqM-58" edge="1">
                    <mxGeometry width="50" height="50" relative="1" as="geometry">
                        <mxPoint x="240" y="-85" as="sourcePoint"/>
                        <mxPoint x="286.7157287525381" y="-131.7157287525381" as="targetPoint"/>
                    </mxGeometry>
                </mxCell>
                <mxCell id="152" value="" style="group" parent="WIyWlLk6GJQsqaUBKTNV-1" vertex="1" connectable="0">
                    <mxGeometry x="980" y="40" width="120" height="120" as="geometry"/>
                </mxCell>
                <mxCell id="153" value="gas_stock" style="ellipse;whiteSpace=wrap;html=1;" parent="152" vertex="1">
                    <mxGeometry y="10" width="120" height="80" as="geometry"/>
                </mxCell>
                <mxCell id="154" value="" style="group;fillColor=#f8cecc;strokeColor=#b85450;" parent="152" vertex="1" connectable="0">
                    <mxGeometry x="10" y="90" width="100" height="30" as="geometry"/>
                </mxCell>
                <mxCell id="155" value="flow_s" style="rounded=0;whiteSpace=wrap;html=1;fillColor=#e1d5e7;strokeColor=#9673a6;" parent="154" vertex="1">
                    <mxGeometry width="50" height="30" as="geometry"/>
                </mxCell>
                <mxCell id="156" value="flow_in" style="rounded=0;whiteSpace=wrap;html=1;fillColor=#e1d5e7;strokeColor=#6c8ebf;" parent="154" vertex="1">
                    <mxGeometry x="50" width="50" height="30" as="geometry"/>
                </mxCell>
                <mxCell id="121" style="edgeStyle=none;html=1;entryX=1;entryY=1;entryDx=0;entryDy=0;startArrow=none;startFill=0;endArrow=classic;endFill=1;" parent="WIyWlLk6GJQsqaUBKTNV-1" source="15" target="156" edge="1">
                    <mxGeometry relative="1" as="geometry"/>
                </mxCell>
                <mxCell id="158" style="edgeStyle=none;html=1;entryX=0;entryY=1;entryDx=0;entryDy=0;startArrow=classic;startFill=1;endArrow=none;endFill=0;exitX=0;exitY=0;exitDx=0;exitDy=0;" parent="WIyWlLk6GJQsqaUBKTNV-1" source="4" target="155" edge="1">
                    <mxGeometry relative="1" as="geometry">
                        <mxPoint x="1075" y="290" as="sourcePoint"/>
                        <mxPoint x="1087.5" y="170" as="targetPoint"/>
                    </mxGeometry>
                </mxCell>
                <mxCell id="Va4gqrnXocLt5GUEUR7I-170" value="min&amp;nbsp;&amp;nbsp;&lt;span style=&quot;&quot;&gt;&lt;/span&gt;production costs + balance costs&lt;br&gt;s.t.&amp;nbsp;&lt;span style=&quot;&quot;&gt;&amp;nbsp;&amp;nbsp;&lt;/span&gt;prod_gas_electrolyzer = efficiency_electrolyzer * (consumption_elec_electrolyzer)&amp;nbsp;&lt;br&gt;&lt;span style=&quot;&quot;&gt;&#9;&lt;/span&gt;&lt;span style=&quot;white-space: pre;&quot;&gt;&#9;&lt;/span&gt;consumption_compressor =&amp;nbsp;eff_compressor * power_in&lt;br&gt;&lt;span style=&quot;&quot;&gt;&#9;&lt;/span&gt;&lt;span style=&quot;white-space: pre;&quot;&gt;&#9;&lt;/span&gt;stock(t+1) = stock(t) + power_in(t) - power_out(t)&amp;nbsp;&amp;nbsp;&lt;br&gt;&lt;span style=&quot;&quot;&gt;&#9;&lt;/span&gt;&lt;span style=&quot;white-space: pre;&quot;&gt;&#9;&lt;/span&gt;balance at each node&lt;br&gt;&lt;span style=&quot;&quot;&gt;&#9;&lt;/span&gt;&lt;span style=&quot;white-space: pre;&quot;&gt;&#9;&lt;/span&gt;production constraints" style="text;html=1;strokeColor=#CCCCFF;fillColor=none;align=left;verticalAlign=middle;whiteSpace=wrap;rounded=0;dashed=1;dashPattern=1 1;strokeWidth=2;" parent="WIyWlLk6GJQsqaUBKTNV-1" vertex="1">
                    <mxGeometry x="330" y="-470" width="540" height="100" as="geometry"/>
                </mxCell>
            </root>
        </mxGraphModel>
    </diagram>
    <diagram id="tA_zB2jGQ9Bv3yYgPDxx" name="unique_model">
        <mxGraphModel dx="1202" dy="1693" grid="1" gridSize="10" guides="1" tooltips="1" connect="1" arrows="1" fold="1" page="1" pageScale="1" pageWidth="850" pageHeight="1100" math="0" shadow="0">
            <root>
                <mxCell id="0"/>
                <mxCell id="1" parent="0"/>
                <mxCell id="PPvn2V2-SSPivxvc0sW9-1" value="" style="endArrow=none;dashed=1;html=1;rounded=0;" parent="1" edge="1">
                    <mxGeometry width="50" height="50" relative="1" as="geometry">
                        <mxPoint x="440" y="-10.000000000000455" as="sourcePoint"/>
                        <mxPoint x="440" y="-360" as="targetPoint"/>
                    </mxGeometry>
                </mxCell>
                <mxCell id="PPvn2V2-SSPivxvc0sW9-2" value="" style="endArrow=none;dashed=1;html=1;rounded=0;" parent="1" edge="1">
                    <mxGeometry width="50" height="50" relative="1" as="geometry">
                        <mxPoint x="160" y="-280" as="sourcePoint"/>
                        <mxPoint x="720" y="-280" as="targetPoint"/>
                    </mxGeometry>
                </mxCell>
                <mxCell id="PPvn2V2-SSPivxvc0sW9-3" value="Gas system" style="text;html=1;strokeColor=none;fillColor=none;align=center;verticalAlign=middle;whiteSpace=wrap;rounded=0;" parent="1" vertex="1">
                    <mxGeometry x="250" y="-340" width="110" height="40" as="geometry"/>
                </mxCell>
                <mxCell id="PPvn2V2-SSPivxvc0sW9-4" value="Electric system" style="text;html=1;strokeColor=none;fillColor=none;align=center;verticalAlign=middle;whiteSpace=wrap;rounded=0;" parent="1" vertex="1">
                    <mxGeometry x="515" y="-340" width="110" height="40" as="geometry"/>
                </mxCell>
                <mxCell id="PPvn2V2-SSPivxvc0sW9-5" value="G" style="ellipse;whiteSpace=wrap;html=1;aspect=fixed;" parent="1" vertex="1">
                    <mxGeometry x="265" y="-210" width="80" height="80" as="geometry"/>
                </mxCell>
                <mxCell id="PPvn2V2-SSPivxvc0sW9-6" value="E" style="ellipse;whiteSpace=wrap;html=1;aspect=fixed;" parent="1" vertex="1">
                    <mxGeometry x="530" y="-210" width="80" height="80" as="geometry"/>
                </mxCell>
                <mxCell id="PPvn2V2-SSPivxvc0sW9-7" value="" style="endArrow=classic;html=1;rounded=0;entryX=0;entryY=1;entryDx=0;entryDy=0;exitX=1;exitY=0.5;exitDx=0;exitDy=0;" parent="1" source="PPvn2V2-SSPivxvc0sW9-11" target="PPvn2V2-SSPivxvc0sW9-5" edge="1">
                    <mxGeometry width="50" height="50" relative="1" as="geometry">
                        <mxPoint x="230" y="-90" as="sourcePoint"/>
                        <mxPoint x="440" y="-90" as="targetPoint"/>
                    </mxGeometry>
                </mxCell>
                <mxCell id="PPvn2V2-SSPivxvc0sW9-8" value="" style="endArrow=classic;html=1;rounded=0;exitX=0;exitY=0;exitDx=0;exitDy=0;entryX=1;entryY=0.5;entryDx=0;entryDy=0;" parent="1" source="PPvn2V2-SSPivxvc0sW9-5" target="PPvn2V2-SSPivxvc0sW9-14" edge="1">
                    <mxGeometry width="50" height="50" relative="1" as="geometry">
                        <mxPoint x="240" y="-80" as="sourcePoint"/>
                        <mxPoint x="210" y="-230" as="targetPoint"/>
                    </mxGeometry>
                </mxCell>
                <mxCell id="PPvn2V2-SSPivxvc0sW9-9" value="" style="endArrow=classic;html=1;rounded=0;exitX=1;exitY=0;exitDx=0;exitDy=0;entryX=0;entryY=0.5;entryDx=0;entryDy=0;" parent="1" source="PPvn2V2-SSPivxvc0sW9-6" target="PPvn2V2-SSPivxvc0sW9-13" edge="1">
                    <mxGeometry width="50" height="50" relative="1" as="geometry">
                        <mxPoint x="707" y="-228" as="sourcePoint"/>
                        <mxPoint x="650" y="-240" as="targetPoint"/>
                    </mxGeometry>
                </mxCell>
                <mxCell id="PPvn2V2-SSPivxvc0sW9-10" value="" style="endArrow=classic;html=1;rounded=0;entryX=1;entryY=1;entryDx=0;entryDy=0;exitX=0;exitY=0.5;exitDx=0;exitDy=0;" parent="1" source="PPvn2V2-SSPivxvc0sW9-12" target="PPvn2V2-SSPivxvc0sW9-6" edge="1">
                    <mxGeometry width="50" height="50" relative="1" as="geometry">
                        <mxPoint x="650" y="-90" as="sourcePoint"/>
                        <mxPoint x="600" y="-110" as="targetPoint"/>
                    </mxGeometry>
                </mxCell>
                <mxCell id="PPvn2V2-SSPivxvc0sW9-11" value="Gas production" style="rounded=1;whiteSpace=wrap;html=1;" parent="1" vertex="1">
                    <mxGeometry x="140" y="-110" width="90" height="30" as="geometry"/>
                </mxCell>
                <mxCell id="PPvn2V2-SSPivxvc0sW9-12" value="Elec production" style="rounded=1;whiteSpace=wrap;html=1;" parent="1" vertex="1">
                    <mxGeometry x="660" y="-110" width="90" height="30" as="geometry"/>
                </mxCell>
                <mxCell id="PPvn2V2-SSPivxvc0sW9-13" value="Elec demand" style="rounded=1;whiteSpace=wrap;html=1;" parent="1" vertex="1">
                    <mxGeometry x="660" y="-260" width="90" height="30" as="geometry"/>
                </mxCell>
                <mxCell id="PPvn2V2-SSPivxvc0sW9-14" value="Gas demand" style="rounded=1;whiteSpace=wrap;html=1;" parent="1" vertex="1">
                    <mxGeometry x="140" y="-250" width="90" height="30" as="geometry"/>
                </mxCell>
                <mxCell id="PPvn2V2-SSPivxvc0sW9-15" value="&lt;h1&gt;Physical system&lt;br&gt;&lt;/h1&gt;" style="text;html=1;strokeColor=none;fillColor=none;spacing=5;spacingTop=-20;whiteSpace=wrap;overflow=hidden;rounded=0;" parent="1" vertex="1">
                    <mxGeometry x="310" y="-520" width="250" height="40" as="geometry"/>
                </mxCell>
                <mxCell id="PPvn2V2-SSPivxvc0sW9-16" value="" style="group" parent="1" vertex="1" connectable="0">
                    <mxGeometry x="890" y="-480" width="690" height="460" as="geometry"/>
                </mxCell>
                <mxCell id="PPvn2V2-SSPivxvc0sW9-17" value="&lt;h1&gt;Ports and models&lt;br&gt;&lt;/h1&gt;" style="text;html=1;strokeColor=none;fillColor=none;spacing=5;spacingTop=-20;whiteSpace=wrap;overflow=hidden;rounded=0;" parent="PPvn2V2-SSPivxvc0sW9-16" vertex="1">
                    <mxGeometry x="230" width="250" height="40" as="geometry"/>
                </mxCell>
                <mxCell id="PPvn2V2-SSPivxvc0sW9-18" value="StockFinalLevelCompressor : Model" style="swimlane;fontStyle=0;childLayout=stackLayout;horizontal=1;startSize=30;horizontalStack=0;resizeParent=1;resizeParentMax=0;resizeLast=0;collapsible=1;marginBottom=0;whiteSpace=wrap;html=1;fillColor=#CCFFCC;fontColor=#000000;" parent="PPvn2V2-SSPivxvc0sW9-16" vertex="1">
                    <mxGeometry x="10" y="40" width="270" height="420" as="geometry"/>
                </mxCell>
                <mxCell id="PPvn2V2-SSPivxvc0sW9-19" value="r, u_in, u_out : Variable" style="text;strokeColor=none;fillColor=none;align=left;verticalAlign=middle;spacingLeft=4;spacingRight=4;overflow=hidden;points=[[0,0.5],[1,0.5]];portConstraint=eastwest;rotatable=0;whiteSpace=wrap;html=1;" parent="PPvn2V2-SSPivxvc0sW9-18" vertex="1">
                    <mxGeometry y="30" width="270" height="30" as="geometry"/>
                </mxCell>
                <mxCell id="PPvn2V2-SSPivxvc0sW9-20" value="p_max_in, p_max_out : Parameter" style="text;strokeColor=none;fillColor=none;align=left;verticalAlign=middle;spacingLeft=4;spacingRight=4;overflow=hidden;points=[[0,0.5],[1,0.5]];portConstraint=eastwest;rotatable=0;whiteSpace=wrap;html=1;" parent="PPvn2V2-SSPivxvc0sW9-18" vertex="1">
                    <mxGeometry y="60" width="270" height="30" as="geometry"/>
                </mxCell>
                <mxCell id="PPvn2V2-SSPivxvc0sW9-21" value="capacity, initial_level, final_level : Parameter" style="text;strokeColor=none;fillColor=none;align=left;verticalAlign=middle;spacingLeft=4;spacingRight=4;overflow=hidden;points=[[0,0.5],[1,0.5]];portConstraint=eastwest;rotatable=0;whiteSpace=wrap;html=1;" parent="PPvn2V2-SSPivxvc0sW9-18" vertex="1">
                    <mxGeometry y="90" width="270" height="30" as="geometry"/>
                </mxCell>
                <mxCell id="PPvn2V2-SSPivxvc0sW9-101" value="alpha : Parameter" style="text;strokeColor=none;fillColor=none;align=left;verticalAlign=middle;spacingLeft=4;spacingRight=4;overflow=hidden;points=[[0,0.5],[1,0.5]];portConstraint=eastwest;rotatable=0;whiteSpace=wrap;html=1;" parent="PPvn2V2-SSPivxvc0sW9-18" vertex="1">
                    <mxGeometry y="120" width="270" height="30" as="geometry"/>
                </mxCell>
                <mxCell id="PPvn2V2-SSPivxvc0sW9-22" value="0 &amp;lt;= u_in &amp;lt;= p_max_in" style="text;strokeColor=none;fillColor=none;align=left;verticalAlign=middle;spacingLeft=4;spacingRight=4;overflow=hidden;points=[[0,0.5],[1,0.5]];portConstraint=eastwest;rotatable=0;whiteSpace=wrap;html=1;" parent="PPvn2V2-SSPivxvc0sW9-18" vertex="1">
                    <mxGeometry y="150" width="270" height="30" as="geometry"/>
                </mxCell>
                <mxCell id="PPvn2V2-SSPivxvc0sW9-23" value="0 &amp;lt;= u_out &amp;lt;= p_max_out" style="text;strokeColor=none;fillColor=none;align=left;verticalAlign=middle;spacingLeft=4;spacingRight=4;overflow=hidden;points=[[0,0.5],[1,0.5]];portConstraint=eastwest;rotatable=0;whiteSpace=wrap;html=1;" parent="PPvn2V2-SSPivxvc0sW9-18" vertex="1">
                    <mxGeometry y="180" width="270" height="30" as="geometry"/>
                </mxCell>
                <mxCell id="PPvn2V2-SSPivxvc0sW9-24" value="r_0= initial_level" style="text;strokeColor=none;fillColor=none;align=left;verticalAlign=middle;spacingLeft=4;spacingRight=4;overflow=hidden;points=[[0,0.5],[1,0.5]];portConstraint=eastwest;rotatable=0;whiteSpace=wrap;html=1;" parent="PPvn2V2-SSPivxvc0sW9-18" vertex="1">
                    <mxGeometry y="210" width="270" height="30" as="geometry"/>
                </mxCell>
                <mxCell id="PPvn2V2-SSPivxvc0sW9-25" value="r_H = final_level" style="text;strokeColor=none;fillColor=none;align=left;verticalAlign=middle;spacingLeft=4;spacingRight=4;overflow=hidden;points=[[0,0.5],[1,0.5]];portConstraint=eastwest;rotatable=0;whiteSpace=wrap;html=1;" parent="PPvn2V2-SSPivxvc0sW9-18" vertex="1">
                    <mxGeometry y="240" width="270" height="30" as="geometry"/>
                </mxCell>
                <mxCell id="PPvn2V2-SSPivxvc0sW9-26" value="0&amp;lt;=r &amp;lt;=capacity" style="text;strokeColor=none;fillColor=none;align=left;verticalAlign=middle;spacingLeft=4;spacingRight=4;overflow=hidden;points=[[0,0.5],[1,0.5]];portConstraint=eastwest;rotatable=0;whiteSpace=wrap;html=1;" parent="PPvn2V2-SSPivxvc0sW9-18" vertex="1">
                    <mxGeometry y="270" width="270" height="30" as="geometry"/>
                </mxCell>
                <mxCell id="PPvn2V2-SSPivxvc0sW9-27" value="r(h+1) = r(h) + u_in(h) - u_out(h)" style="text;strokeColor=none;fillColor=none;align=left;verticalAlign=middle;spacingLeft=4;spacingRight=4;overflow=hidden;points=[[0,0.5],[1,0.5]];portConstraint=eastwest;rotatable=0;whiteSpace=wrap;html=1;" parent="PPvn2V2-SSPivxvc0sW9-18" vertex="1">
                    <mxGeometry y="300" width="270" height="30" as="geometry"/>
                </mxCell>
                <mxCell id="PPvn2V2-SSPivxvc0sW9-28" value="flow_s, flow_c : Flow" style="text;strokeColor=none;fillColor=none;align=left;verticalAlign=middle;spacingLeft=4;spacingRight=4;overflow=hidden;points=[[0,0.5],[1,0.5]];portConstraint=eastwest;rotatable=0;whiteSpace=wrap;html=1;" parent="PPvn2V2-SSPivxvc0sW9-18" vertex="1">
                    <mxGeometry y="330" width="270" height="30" as="geometry"/>
                </mxCell>
                <mxCell id="PPvn2V2-SSPivxvc0sW9-29" value="flow_s.f = u_out - u_in" style="text;strokeColor=none;fillColor=none;align=left;verticalAlign=middle;spacingLeft=4;spacingRight=4;overflow=hidden;points=[[0,0.5],[1,0.5]];portConstraint=eastwest;rotatable=0;whiteSpace=wrap;html=1;" parent="PPvn2V2-SSPivxvc0sW9-18" vertex="1">
                    <mxGeometry y="360" width="270" height="30" as="geometry"/>
                </mxCell>
                <mxCell id="PPvn2V2-SSPivxvc0sW9-30" value="flow_c.f = - alpha * u_in" style="text;strokeColor=none;fillColor=none;align=left;verticalAlign=middle;spacingLeft=4;spacingRight=4;overflow=hidden;points=[[0,0.5],[1,0.5]];portConstraint=eastwest;rotatable=0;whiteSpace=wrap;html=1;" parent="PPvn2V2-SSPivxvc0sW9-18" vertex="1">
                    <mxGeometry y="390" width="270" height="30" as="geometry"/>
                </mxCell>
                <mxCell id="PPvn2V2-SSPivxvc0sW9-31" value="" style="group" parent="1" vertex="1" connectable="0">
                    <mxGeometry x="109" y="40" width="680" height="320" as="geometry"/>
                </mxCell>
                <mxCell id="PPvn2V2-SSPivxvc0sW9-32" value="File &quot;network.txt&quot;" style="swimlane;fontStyle=0;childLayout=stackLayout;horizontal=1;startSize=30;horizontalStack=0;resizeParent=1;resizeParentMax=0;resizeLast=0;collapsible=1;marginBottom=0;whiteSpace=wrap;html=1;fillColor=#CCCCFF;" parent="PPvn2V2-SSPivxvc0sW9-31" vertex="1">
                    <mxGeometry x="220" y="60" width="310" height="420" as="geometry"/>
                </mxCell>
                <mxCell id="PPvn2V2-SSPivxvc0sW9-33" value="g, e : Node" style="text;strokeColor=none;fillColor=none;align=left;verticalAlign=middle;spacingLeft=4;spacingRight=4;overflow=hidden;points=[[0,0.5],[1,0.5]];portConstraint=eastwest;rotatable=0;whiteSpace=wrap;html=1;" parent="PPvn2V2-SSPivxvc0sW9-32" vertex="1">
                    <mxGeometry y="30" width="310" height="30" as="geometry"/>
                </mxCell>
                <mxCell id="PPvn2V2-SSPivxvc0sW9-34" value="demand_e, demand_g : Demand" style="text;strokeColor=none;fillColor=none;align=left;verticalAlign=middle;spacingLeft=4;spacingRight=4;overflow=hidden;points=[[0,0.5],[1,0.5]];portConstraint=eastwest;rotatable=0;whiteSpace=wrap;html=1;" parent="PPvn2V2-SSPivxvc0sW9-32" vertex="1">
                    <mxGeometry y="60" width="310" height="30" as="geometry"/>
                </mxCell>
                <mxCell id="PPvn2V2-SSPivxvc0sW9-35" value="prod_e, prod_g : Production" style="text;strokeColor=none;fillColor=none;align=left;verticalAlign=middle;spacingLeft=4;spacingRight=4;overflow=hidden;points=[[0,0.5],[1,0.5]];portConstraint=eastwest;rotatable=0;whiteSpace=wrap;html=1;" parent="PPvn2V2-SSPivxvc0sW9-32" vertex="1">
                    <mxGeometry y="90" width="310" height="30" as="geometry"/>
                </mxCell>
                <mxCell id="PPvn2V2-SSPivxvc0sW9-36" value="electrolyser : Converter" style="text;strokeColor=none;fillColor=none;align=left;verticalAlign=middle;spacingLeft=4;spacingRight=4;overflow=hidden;points=[[0,0.5],[1,0.5]];portConstraint=eastwest;rotatable=0;whiteSpace=wrap;html=1;" parent="PPvn2V2-SSPivxvc0sW9-32" vertex="1">
                    <mxGeometry y="120" width="310" height="30" as="geometry"/>
                </mxCell>
                <mxCell id="PPvn2V2-SSPivxvc0sW9-38" value="gas_stock : StockFinalLevelCompressor" style="text;strokeColor=none;fillColor=none;align=left;verticalAlign=middle;spacingLeft=4;spacingRight=4;overflow=hidden;points=[[0,0.5],[1,0.5]];portConstraint=eastwest;rotatable=0;whiteSpace=wrap;html=1;" parent="PPvn2V2-SSPivxvc0sW9-32" vertex="1">
                    <mxGeometry y="150" width="310" height="30" as="geometry"/>
                </mxCell>
                <mxCell id="PPvn2V2-SSPivxvc0sW9-39" value="e.flow_n prod_e.flow_p" style="text;strokeColor=none;fillColor=none;align=left;verticalAlign=middle;spacingLeft=4;spacingRight=4;overflow=hidden;points=[[0,0.5],[1,0.5]];portConstraint=eastwest;rotatable=0;whiteSpace=wrap;html=1;" parent="PPvn2V2-SSPivxvc0sW9-32" vertex="1">
                    <mxGeometry y="180" width="310" height="30" as="geometry"/>
                </mxCell>
                <mxCell id="PPvn2V2-SSPivxvc0sW9-40" value="e.flow_n demand_e.flow_d" style="text;strokeColor=none;fillColor=none;align=left;verticalAlign=middle;spacingLeft=4;spacingRight=4;overflow=hidden;points=[[0,0.5],[1,0.5]];portConstraint=eastwest;rotatable=0;whiteSpace=wrap;html=1;" parent="PPvn2V2-SSPivxvc0sW9-32" vertex="1">
                    <mxGeometry y="210" width="310" height="30" as="geometry"/>
                </mxCell>
                <mxCell id="PPvn2V2-SSPivxvc0sW9-41" value="g.flow_n prod_g.flow_p" style="text;strokeColor=none;fillColor=none;align=left;verticalAlign=middle;spacingLeft=4;spacingRight=4;overflow=hidden;points=[[0,0.5],[1,0.5]];portConstraint=eastwest;rotatable=0;whiteSpace=wrap;html=1;" parent="PPvn2V2-SSPivxvc0sW9-32" vertex="1">
                    <mxGeometry y="240" width="310" height="30" as="geometry"/>
                </mxCell>
                <mxCell id="PPvn2V2-SSPivxvc0sW9-42" value="g.flow_n demand_g.flow_d" style="text;strokeColor=none;fillColor=none;align=left;verticalAlign=middle;spacingLeft=4;spacingRight=4;overflow=hidden;points=[[0,0.5],[1,0.5]];portConstraint=eastwest;rotatable=0;whiteSpace=wrap;html=1;" parent="PPvn2V2-SSPivxvc0sW9-32" vertex="1">
                    <mxGeometry y="270" width="310" height="30" as="geometry"/>
                </mxCell>
                <mxCell id="PPvn2V2-SSPivxvc0sW9-43" value="e.flow_n electrolyser.flow_in" style="text;strokeColor=none;fillColor=none;align=left;verticalAlign=middle;spacingLeft=4;spacingRight=4;overflow=hidden;points=[[0,0.5],[1,0.5]];portConstraint=eastwest;rotatable=0;whiteSpace=wrap;html=1;" parent="PPvn2V2-SSPivxvc0sW9-32" vertex="1">
                    <mxGeometry y="300" width="310" height="30" as="geometry"/>
                </mxCell>
                <mxCell id="PPvn2V2-SSPivxvc0sW9-44" value="g.flow_n electrolyser.flow_out" style="text;strokeColor=none;fillColor=none;align=left;verticalAlign=middle;spacingLeft=4;spacingRight=4;overflow=hidden;points=[[0,0.5],[1,0.5]];portConstraint=eastwest;rotatable=0;whiteSpace=wrap;html=1;" parent="PPvn2V2-SSPivxvc0sW9-32" vertex="1">
                    <mxGeometry y="330" width="310" height="30" as="geometry"/>
                </mxCell>
                <mxCell id="PPvn2V2-SSPivxvc0sW9-45" value="g.flow_n gas_stock.flow_s" style="text;strokeColor=none;fillColor=none;align=left;verticalAlign=middle;spacingLeft=4;spacingRight=4;overflow=hidden;points=[[0,0.5],[1,0.5]];portConstraint=eastwest;rotatable=0;whiteSpace=wrap;html=1;" parent="PPvn2V2-SSPivxvc0sW9-32" vertex="1">
                    <mxGeometry y="360" width="310" height="30" as="geometry"/>
                </mxCell>
                <mxCell id="PPvn2V2-SSPivxvc0sW9-46" value="e.flow_n gas_stock.flow_c" style="text;strokeColor=none;fillColor=none;align=left;verticalAlign=middle;spacingLeft=4;spacingRight=4;overflow=hidden;points=[[0,0.5],[1,0.5]];portConstraint=eastwest;rotatable=0;whiteSpace=wrap;html=1;" parent="PPvn2V2-SSPivxvc0sW9-32" vertex="1">
                    <mxGeometry y="390" width="310" height="30" as="geometry"/>
                </mxCell>
                <mxCell id="PPvn2V2-SSPivxvc0sW9-48" value="&lt;h1&gt;Study data&lt;br&gt;&lt;/h1&gt;" style="text;html=1;strokeColor=none;fillColor=none;spacing=5;spacingTop=-20;whiteSpace=wrap;overflow=hidden;rounded=0;align=center;" parent="PPvn2V2-SSPivxvc0sW9-31" vertex="1">
                    <mxGeometry x="250" width="250" height="40" as="geometry"/>
                </mxCell>
                <mxCell id="PPvn2V2-SSPivxvc0sW9-49" value="&lt;font style=&quot;&quot;&gt;&lt;b style=&quot;&quot;&gt;&lt;font style=&quot;font-size: 24px;&quot;&gt;Data visualization&lt;/font&gt;&lt;br&gt;&lt;/b&gt;&lt;/font&gt;" style="text;html=1;strokeColor=none;fillColor=none;align=center;verticalAlign=middle;whiteSpace=wrap;rounded=0;" parent="1" vertex="1">
                    <mxGeometry x="1030" width="430" height="120" as="geometry"/>
                </mxCell>
                <mxCell id="PPvn2V2-SSPivxvc0sW9-50" value="" style="group" parent="1" vertex="1" connectable="0">
                    <mxGeometry x="880" y="170" width="790" height="260.5" as="geometry"/>
                </mxCell>
                <mxCell id="PPvn2V2-SSPivxvc0sW9-51" value="" style="group" parent="PPvn2V2-SSPivxvc0sW9-50" vertex="1" connectable="0">
                    <mxGeometry x="120" y="30" width="80" height="110" as="geometry"/>
                </mxCell>
                <mxCell id="PPvn2V2-SSPivxvc0sW9-52" value="g" style="ellipse;whiteSpace=wrap;html=1;aspect=fixed;fillColor=#e1d5e7;strokeColor=#9673a6;" parent="PPvn2V2-SSPivxvc0sW9-51" vertex="1">
                    <mxGeometry width="80" height="80" as="geometry"/>
                </mxCell>
                <mxCell id="PPvn2V2-SSPivxvc0sW9-53" value="flow_n" style="rounded=0;whiteSpace=wrap;html=1;fillColor=#e1d5e7;strokeColor=#9673a6;" parent="PPvn2V2-SSPivxvc0sW9-51" vertex="1">
                    <mxGeometry x="15" y="80" width="50" height="30" as="geometry"/>
                </mxCell>
                <mxCell id="PPvn2V2-SSPivxvc0sW9-54" value="" style="group" parent="PPvn2V2-SSPivxvc0sW9-50" vertex="1" connectable="0">
                    <mxGeometry x="590" y="30" width="80" height="110" as="geometry"/>
                </mxCell>
                <mxCell id="PPvn2V2-SSPivxvc0sW9-55" value="e" style="ellipse;whiteSpace=wrap;html=1;aspect=fixed;fillColor=#dae8fc;strokeColor=#6c8ebf;" parent="PPvn2V2-SSPivxvc0sW9-54" vertex="1">
                    <mxGeometry width="80" height="80" as="geometry"/>
                </mxCell>
                <mxCell id="PPvn2V2-SSPivxvc0sW9-56" value="flow_n" style="rounded=0;whiteSpace=wrap;html=1;fillColor=#dae8fc;strokeColor=#6c8ebf;" parent="PPvn2V2-SSPivxvc0sW9-54" vertex="1">
                    <mxGeometry x="15" y="80" width="50" height="30" as="geometry"/>
                </mxCell>
                <mxCell id="PPvn2V2-SSPivxvc0sW9-57" value="" style="group" parent="PPvn2V2-SSPivxvc0sW9-50" vertex="1" connectable="0">
                    <mxGeometry x="330" y="150" width="120" height="110.5" as="geometry"/>
                </mxCell>
                <mxCell id="PPvn2V2-SSPivxvc0sW9-58" value="electrolyser" style="ellipse;whiteSpace=wrap;html=1;" parent="PPvn2V2-SSPivxvc0sW9-57" vertex="1">
                    <mxGeometry y="30.5" width="120" height="80" as="geometry"/>
                </mxCell>
                <mxCell id="PPvn2V2-SSPivxvc0sW9-59" value="" style="group;fillColor=#f8cecc;strokeColor=#b85450;" parent="PPvn2V2-SSPivxvc0sW9-57" vertex="1" connectable="0">
                    <mxGeometry x="10" width="100" height="30" as="geometry"/>
                </mxCell>
                <mxCell id="PPvn2V2-SSPivxvc0sW9-60" value="flow_out" style="rounded=0;whiteSpace=wrap;html=1;fillColor=#e1d5e7;strokeColor=#9673a6;" parent="PPvn2V2-SSPivxvc0sW9-59" vertex="1">
                    <mxGeometry width="50" height="30" as="geometry"/>
                </mxCell>
                <mxCell id="PPvn2V2-SSPivxvc0sW9-61" value="flow_in" style="rounded=0;whiteSpace=wrap;html=1;fillColor=#dae8fc;strokeColor=#6c8ebf;" parent="PPvn2V2-SSPivxvc0sW9-59" vertex="1">
                    <mxGeometry x="50" width="50" height="30" as="geometry"/>
                </mxCell>
                <mxCell id="PPvn2V2-SSPivxvc0sW9-67" value="" style="group" parent="PPvn2V2-SSPivxvc0sW9-50" vertex="1" connectable="0">
                    <mxGeometry x="710" y="110" width="80" height="60" as="geometry"/>
                </mxCell>
                <mxCell id="PPvn2V2-SSPivxvc0sW9-68" value="prod_e" style="rounded=1;whiteSpace=wrap;html=1;container=0;" parent="PPvn2V2-SSPivxvc0sW9-67" vertex="1">
                    <mxGeometry y="30" width="80" height="30" as="geometry"/>
                </mxCell>
                <mxCell id="PPvn2V2-SSPivxvc0sW9-69" value="flow_p" style="rounded=0;whiteSpace=wrap;html=1;fillColor=#dae8fc;strokeColor=#6c8ebf;container=0;" parent="PPvn2V2-SSPivxvc0sW9-67" vertex="1">
                    <mxGeometry x="15" width="50" height="30" as="geometry"/>
                </mxCell>
                <mxCell id="PPvn2V2-SSPivxvc0sW9-70" value="" style="group" parent="PPvn2V2-SSPivxvc0sW9-50" vertex="1" connectable="0">
                    <mxGeometry x="590" y="190" width="80" height="60" as="geometry"/>
                </mxCell>
                <mxCell id="PPvn2V2-SSPivxvc0sW9-71" value="demand_e" style="rounded=1;whiteSpace=wrap;html=1;container=0;" parent="PPvn2V2-SSPivxvc0sW9-70" vertex="1">
                    <mxGeometry y="30" width="80" height="30" as="geometry"/>
                </mxCell>
                <mxCell id="PPvn2V2-SSPivxvc0sW9-72" value="flow_d" style="rounded=0;whiteSpace=wrap;html=1;fillColor=#dae8fc;strokeColor=#6c8ebf;container=0;" parent="PPvn2V2-SSPivxvc0sW9-70" vertex="1">
                    <mxGeometry x="15" width="50" height="30" as="geometry"/>
                </mxCell>
                <mxCell id="PPvn2V2-SSPivxvc0sW9-73" value="" style="group" parent="PPvn2V2-SSPivxvc0sW9-50" vertex="1" connectable="0">
                    <mxGeometry x="120" y="190" width="80" height="60" as="geometry"/>
                </mxCell>
                <mxCell id="PPvn2V2-SSPivxvc0sW9-74" value="demand_g" style="rounded=1;whiteSpace=wrap;html=1;container=0;" parent="PPvn2V2-SSPivxvc0sW9-73" vertex="1">
                    <mxGeometry y="30" width="80" height="30" as="geometry"/>
                </mxCell>
                <mxCell id="PPvn2V2-SSPivxvc0sW9-75" value="flow_d" style="rounded=0;whiteSpace=wrap;html=1;fillColor=#e1d5e7;strokeColor=#9673a6;container=0;" parent="PPvn2V2-SSPivxvc0sW9-73" vertex="1">
                    <mxGeometry x="15" width="50" height="30" as="geometry"/>
                </mxCell>
                <mxCell id="PPvn2V2-SSPivxvc0sW9-76" value="" style="group" parent="PPvn2V2-SSPivxvc0sW9-50" vertex="1" connectable="0">
                    <mxGeometry y="110" width="80" height="60" as="geometry"/>
                </mxCell>
                <mxCell id="PPvn2V2-SSPivxvc0sW9-77" value="prod_g" style="rounded=1;whiteSpace=wrap;html=1;container=0;" parent="PPvn2V2-SSPivxvc0sW9-76" vertex="1">
                    <mxGeometry y="30" width="80" height="30" as="geometry"/>
                </mxCell>
                <mxCell id="PPvn2V2-SSPivxvc0sW9-78" value="flow_p" style="rounded=0;whiteSpace=wrap;html=1;fillColor=#e1d5e7;strokeColor=#9673a6;container=0;" parent="PPvn2V2-SSPivxvc0sW9-76" vertex="1">
                    <mxGeometry x="15" width="50" height="30" as="geometry"/>
                </mxCell>
                <mxCell id="PPvn2V2-SSPivxvc0sW9-79" style="edgeStyle=none;html=1;entryX=0;entryY=0.5;entryDx=0;entryDy=0;" parent="PPvn2V2-SSPivxvc0sW9-50" source="PPvn2V2-SSPivxvc0sW9-78" target="PPvn2V2-SSPivxvc0sW9-53" edge="1">
                    <mxGeometry relative="1" as="geometry"/>
                </mxCell>
                <mxCell id="PPvn2V2-SSPivxvc0sW9-80" style="edgeStyle=none;html=1;entryX=0.5;entryY=1;entryDx=0;entryDy=0;" parent="PPvn2V2-SSPivxvc0sW9-50" source="PPvn2V2-SSPivxvc0sW9-75" target="PPvn2V2-SSPivxvc0sW9-53" edge="1">
                    <mxGeometry relative="1" as="geometry"/>
                </mxCell>
                <mxCell id="PPvn2V2-SSPivxvc0sW9-81" style="edgeStyle=none;html=1;entryX=1;entryY=0.5;entryDx=0;entryDy=0;" parent="PPvn2V2-SSPivxvc0sW9-50" source="PPvn2V2-SSPivxvc0sW9-60" target="PPvn2V2-SSPivxvc0sW9-53" edge="1">
                    <mxGeometry relative="1" as="geometry"/>
                </mxCell>
                <mxCell id="PPvn2V2-SSPivxvc0sW9-82" style="edgeStyle=none;html=1;entryX=0;entryY=0.5;entryDx=0;entryDy=0;" parent="PPvn2V2-SSPivxvc0sW9-50" source="PPvn2V2-SSPivxvc0sW9-61" target="PPvn2V2-SSPivxvc0sW9-56" edge="1">
                    <mxGeometry relative="1" as="geometry"/>
                </mxCell>
                <mxCell id="PPvn2V2-SSPivxvc0sW9-84" style="edgeStyle=none;html=1;entryX=1;entryY=0.5;entryDx=0;entryDy=0;" parent="PPvn2V2-SSPivxvc0sW9-50" source="PPvn2V2-SSPivxvc0sW9-69" target="PPvn2V2-SSPivxvc0sW9-56" edge="1">
                    <mxGeometry relative="1" as="geometry"/>
                </mxCell>
                <mxCell id="PPvn2V2-SSPivxvc0sW9-85" style="edgeStyle=none;html=1;" parent="PPvn2V2-SSPivxvc0sW9-50" source="PPvn2V2-SSPivxvc0sW9-72" target="PPvn2V2-SSPivxvc0sW9-56" edge="1">
                    <mxGeometry relative="1" as="geometry"/>
                </mxCell>
                <mxCell id="PPvn2V2-SSPivxvc0sW9-86" value="&lt;i&gt;We represent a gas stock. To inject gas into the stock, electricity is needed for the compressor.&amp;nbsp;&lt;/i&gt;" style="text;html=1;strokeColor=#FFCCCC;fillColor=none;align=left;verticalAlign=middle;whiteSpace=wrap;rounded=0;dashed=1;strokeWidth=2;" parent="1" vertex="1">
                    <mxGeometry x="168" y="-560" width="515" height="40" as="geometry"/>
                </mxCell>
                <mxCell id="PPvn2V2-SSPivxvc0sW9-87" value="" style="endArrow=classic;html=1;rounded=0;exitX=0;exitY=0.5;exitDx=0;exitDy=0;entryX=1;entryY=0.5;entryDx=0;entryDy=0;" parent="1" source="PPvn2V2-SSPivxvc0sW9-6" target="PPvn2V2-SSPivxvc0sW9-5" edge="1">
                    <mxGeometry relative="1" as="geometry">
                        <mxPoint x="541.7157287525381" y="-141.7157287525381" as="sourcePoint"/>
                        <mxPoint x="333.2842712474619" y="-141.7157287525381" as="targetPoint"/>
                    </mxGeometry>
                </mxCell>
                <mxCell id="PPvn2V2-SSPivxvc0sW9-88" value="Label" style="edgeLabel;resizable=0;html=1;align=center;verticalAlign=middle;" parent="PPvn2V2-SSPivxvc0sW9-87" connectable="0" vertex="1">
                    <mxGeometry relative="1" as="geometry"/>
                </mxCell>
                <mxCell id="PPvn2V2-SSPivxvc0sW9-89" value="&lt;font style=&quot;font-size: 12px;&quot;&gt;Electrolyser&lt;/font&gt;" style="edgeLabel;html=1;align=center;verticalAlign=middle;resizable=0;points=[];" parent="PPvn2V2-SSPivxvc0sW9-87" vertex="1" connectable="0">
                    <mxGeometry x="-0.024" y="-2" relative="1" as="geometry">
                        <mxPoint as="offset"/>
                    </mxGeometry>
                </mxCell>
                <mxCell id="PPvn2V2-SSPivxvc0sW9-90" value="Compressor consumption&amp;nbsp;" style="rounded=1;whiteSpace=wrap;html=1;" parent="1" vertex="1">
                    <mxGeometry x="660" y="-185" width="90" height="30" as="geometry"/>
                </mxCell>
                <mxCell id="PPvn2V2-SSPivxvc0sW9-91" value="" style="endArrow=classic;html=1;rounded=0;exitX=1;exitY=0.5;exitDx=0;exitDy=0;entryX=0;entryY=0.5;entryDx=0;entryDy=0;" parent="1" source="PPvn2V2-SSPivxvc0sW9-6" target="PPvn2V2-SSPivxvc0sW9-90" edge="1">
                    <mxGeometry width="50" height="50" relative="1" as="geometry">
                        <mxPoint x="608.2842712474621" y="-188.28427124746213" as="sourcePoint"/>
                        <mxPoint x="670" y="-235" as="targetPoint"/>
                    </mxGeometry>
                </mxCell>
                <mxCell id="PPvn2V2-SSPivxvc0sW9-92" value="Gas stock" style="rounded=1;whiteSpace=wrap;html=1;" parent="1" vertex="1">
                    <mxGeometry x="140" y="-185" width="90" height="30" as="geometry"/>
                </mxCell>
                <mxCell id="PPvn2V2-SSPivxvc0sW9-93" value="" style="endArrow=classic;html=1;rounded=0;entryX=0;entryY=0.5;entryDx=0;entryDy=0;exitX=1;exitY=0.5;exitDx=0;exitDy=0;startArrow=classic;startFill=1;" parent="1" source="PPvn2V2-SSPivxvc0sW9-92" target="PPvn2V2-SSPivxvc0sW9-5" edge="1">
                    <mxGeometry width="50" height="50" relative="1" as="geometry">
                        <mxPoint x="240" y="-85" as="sourcePoint"/>
                        <mxPoint x="286.7157287525381" y="-131.7157287525381" as="targetPoint"/>
                    </mxGeometry>
                </mxCell>
                <mxCell id="PPvn2V2-SSPivxvc0sW9-94" value="" style="group" parent="1" vertex="1" connectable="0">
                    <mxGeometry x="980" y="40" width="120" height="120" as="geometry"/>
                </mxCell>
                <mxCell id="PPvn2V2-SSPivxvc0sW9-95" value="gas_stock" style="ellipse;whiteSpace=wrap;html=1;" parent="PPvn2V2-SSPivxvc0sW9-94" vertex="1">
                    <mxGeometry y="10" width="120" height="80" as="geometry"/>
                </mxCell>
                <mxCell id="PPvn2V2-SSPivxvc0sW9-96" value="" style="group;fillColor=#f8cecc;strokeColor=#b85450;" parent="PPvn2V2-SSPivxvc0sW9-94" vertex="1" connectable="0">
                    <mxGeometry x="10" y="90" width="100" height="30" as="geometry"/>
                </mxCell>
                <mxCell id="PPvn2V2-SSPivxvc0sW9-97" value="flow_s" style="rounded=0;whiteSpace=wrap;html=1;fillColor=#e1d5e7;strokeColor=#9673a6;" parent="PPvn2V2-SSPivxvc0sW9-96" vertex="1">
                    <mxGeometry width="50" height="30" as="geometry"/>
                </mxCell>
                <mxCell id="PPvn2V2-SSPivxvc0sW9-98" value="flow_c" style="rounded=0;whiteSpace=wrap;html=1;fillColor=#e1d5e7;strokeColor=#6c8ebf;" parent="PPvn2V2-SSPivxvc0sW9-96" vertex="1">
                    <mxGeometry x="50" width="50" height="30" as="geometry"/>
                </mxCell>
                <mxCell id="PPvn2V2-SSPivxvc0sW9-100" style="edgeStyle=none;html=1;entryX=0;entryY=1;entryDx=0;entryDy=0;startArrow=classic;startFill=1;endArrow=none;endFill=0;exitX=0;exitY=0;exitDx=0;exitDy=0;" parent="1" source="PPvn2V2-SSPivxvc0sW9-53" target="PPvn2V2-SSPivxvc0sW9-97" edge="1">
                    <mxGeometry relative="1" as="geometry">
                        <mxPoint x="1075" y="290" as="sourcePoint"/>
                        <mxPoint x="1087.5" y="170" as="targetPoint"/>
                    </mxGeometry>
                </mxCell>
                <mxCell id="PPvn2V2-SSPivxvc0sW9-83" style="edgeStyle=none;html=1;entryX=0;entryY=0.5;entryDx=0;entryDy=0;exitX=1;exitY=1;exitDx=0;exitDy=0;" parent="1" source="PPvn2V2-SSPivxvc0sW9-98" target="PPvn2V2-SSPivxvc0sW9-56" edge="1">
                    <mxGeometry relative="1" as="geometry">
                        <mxPoint x="1320" y="269.38157894736855" as="sourcePoint"/>
                    </mxGeometry>
                </mxCell>
                <mxCell id="YDug0UtvrYYNSy2EjWlF-1" value="min&amp;nbsp;&amp;nbsp;&lt;span style=&quot;&quot;&gt;&lt;/span&gt;production costs + balance costs&lt;br&gt;s.t.&amp;nbsp;&lt;span style=&quot;&quot;&gt;&amp;nbsp;&amp;nbsp;&lt;/span&gt;prod_gas_electrolyzer = efficiency_electrolyzer * (consumption_elec_electrolyzer)&amp;nbsp;&lt;br&gt;&lt;span style=&quot;&quot;&gt;&#9;&lt;/span&gt;&lt;span style=&quot;white-space: pre;&quot;&gt;&#9;&lt;/span&gt;consumption_compressor =&amp;nbsp;eff_compressor * power_in&lt;br&gt;&lt;span style=&quot;&quot;&gt;&#9;&lt;/span&gt;&lt;span style=&quot;white-space: pre;&quot;&gt;&#9;&lt;/span&gt;stock(t+1) = stock(t) + power_in(t) - power_out(t)&amp;nbsp;&amp;nbsp;&lt;br&gt;&lt;span style=&quot;&quot;&gt;&#9;&lt;/span&gt;&lt;span style=&quot;white-space: pre;&quot;&gt;&#9;&lt;/span&gt;balance at each node&lt;br&gt;&lt;span style=&quot;&quot;&gt;&#9;&lt;/span&gt;&lt;span style=&quot;white-space: pre;&quot;&gt;&#9;&lt;/span&gt;production constraints" style="text;html=1;strokeColor=#CCCCFF;fillColor=none;align=left;verticalAlign=middle;whiteSpace=wrap;rounded=0;dashed=1;dashPattern=1 1;strokeWidth=2;" parent="1" vertex="1">
                    <mxGeometry x="330" y="-470" width="540" height="100" as="geometry"/>
                </mxCell>
            </root>
        </mxGraphModel>
    </diagram>
</mxfile>